<svg width="71" height="55" viewBox="0 0 71 55" fill="none" xmlns="http://www.w3.org/2000/svg">
<rect width="71" height="55" rx="10" fill="none"/>
<path d="M35.5 8C24.73 8 16 16.73 16 27.5C16 36.12 21.59 43.43 29.34 46.01C30.32 46.19 30.68 45.59 30.68 45.08C30.68 44.62 30.66 43.11 30.65 41.5C25.2 42.68 24.05 38.87 24.05 38.87C23.16 36.62 21.88 36.02 21.88 36.02C20.1 34.8 22.01 34.83 22.01 34.83C23.98 34.97 25.01 36.86 25.01 36.86C26.76 39.86 29.61 38.99 30.72 38.49C30.9 37.22 31.41 36.35 31.97 35.85C27.62 35.35 23.05 33.67 23.05 26.16C23.05 24.02 23.81 22.27 25.06 20.89C24.86 20.39 24.19 18.37 25.25 15.63C25.25 15.63 26.93 15.09 30.65 17.61C32.25 17.17 33.96 16.95 35.67 16.94C37.38 16.95 39.09 17.17 40.69 17.61C44.41 15.09 46.09 15.63 46.09 15.63C47.15 18.37 46.48 20.39 46.28 20.89C47.53 22.27 48.29 24.02 48.29 26.16C48.29 33.69 43.71 35.34 39.35 35.83C40.06 36.44 40.69 37.63 40.69 39.45C40.69 42.06 40.67 44.16 40.67 45.08C40.67 45.59 41.02 46.2 42.01 46.01C49.76 43.43 55.35 36.12 55.35 27.5C55.35 16.73 46.62 8 35.5 8Z" fill="white"/>
</svg>
